# xmcd
#
# Track frame offsets:
#	150
#	2097
#	26090
#	44472
#	59870
#	80077
#	100165
#	122112
#	145825
#	165825
#	183387
#
# Disc length: 2690 seconds
#
# Revision: 0
# Processed by: cddbd v1.5.2PL0 Copyright (c) Steve Scherf et al.
# Submitted via: EasyCDDAExtractor 4.5.0.2
#
DISCID=930a800b
DTITLE=이승환 - My Story
DYEAR=1993
DGENRE=Ballad
TTITLE0=My Story
TTITLE1=내게
TTITLE2=잃어버린건 나 part2
TTITLE3=남자는 여자는
TTITLE4=너의 기억
TTITLE5=무너져 버린 믿음 앞에서
TTITLE6=사랑에 관한 충고
TTITLE7=덩크슛
TTITLE8=Radio Heaven
TTITLE9=화려하지 않은 고백
TTITLE10=내 어머니
EXTD=
EXTT0=
EXTT1=
EXTT2=
EXTT3=
EXTT4=
EXTT5=
EXTT6=
EXTT7=
EXTT8=
EXTT9=
EXTT10=
PLAYORDER=
